<svg id="visual" viewBox="0 0 960 540" width="960" height="540" xmlns="http://www.w3.org/2000/svg" xmlns:xlink="http://www.w3.org/1999/xlink" version="1.1"><path d="M0 152L87 152L87 131L175 131L175 131L262 131L262 168L349 168L349 233L436 233L436 114L524 114L524 125L611 125L611 239L698 239L698 120L785 120L785 152L873 152L873 195L960 195L960 131L960 0L960 0L873 0L873 0L785 0L785 0L698 0L698 0L611 0L611 0L524 0L524 0L436 0L436 0L349 0L349 0L262 0L262 0L175 0L175 0L87 0L87 0L0 0Z" fill="#fa7268"></path><path d="M0 282L87 282L87 374L175 374L175 287L262 287L262 282L349 282L349 325L436 325L436 287L524 287L524 282L611 282L611 352L698 352L698 298L785 298L785 260L873 260L873 303L960 303L960 271L960 129L960 193L873 193L873 150L785 150L785 118L698 118L698 237L611 237L611 123L524 123L524 112L436 112L436 231L349 231L349 166L262 166L262 129L175 129L175 129L87 129L87 150L0 150Z" fill="#ea5e66"></path><path d="M0 325L87 325L87 406L175 406L175 363L262 363L262 336L349 336L349 406L436 406L436 352L524 352L524 368L611 368L611 390L698 390L698 347L785 347L785 330L873 330L873 374L960 374L960 352L960 269L960 301L873 301L873 258L785 258L785 296L698 296L698 350L611 350L611 280L524 280L524 285L436 285L436 323L349 323L349 280L262 280L262 285L175 285L175 372L87 372L87 280L0 280Z" fill="#d84a64"></path><path d="M0 444L87 444L87 492L175 492L175 401L262 401L262 438L349 438L349 449L436 449L436 438L524 438L524 449L611 449L611 455L698 455L698 428L785 428L785 411L873 411L873 444L960 444L960 422L960 350L960 372L873 372L873 328L785 328L785 345L698 345L698 388L611 388L611 366L524 366L524 350L436 350L436 404L349 404L349 334L262 334L262 361L175 361L175 404L87 404L87 323L0 323Z" fill="#c53762"></path><path d="M0 541L87 541L87 541L175 541L175 541L262 541L262 541L349 541L349 541L436 541L436 541L524 541L524 541L611 541L611 541L698 541L698 541L785 541L785 541L873 541L873 541L960 541L960 541L960 420L960 442L873 442L873 409L785 409L785 426L698 426L698 453L611 453L611 447L524 447L524 436L436 436L436 447L349 447L349 436L262 436L262 399L175 399L175 490L87 490L87 442L0 442Z" fill="#b0235f"></path></svg>